<mxfile host="app.diagrams.net" modified="2023-03-25T07:20:17.056Z" agent="Mozilla/5.0 (Windows NT 10.0; Win64; x64) AppleWebKit/537.36 (KHTML, like Gecko) Chrome/108.0.0.0 Safari/537.36 OPR/94.0.0.0 (Edition Yx 05)" version="21.1.1" etag="RYmnEiKjfNpsRZjeGOp6" type="github">
  <diagram name="Страница 1" id="mhdEVjtLd4areOy4pMeZ">
    <mxGraphModel>
      <root>
        <mxCell id="0" />
        <mxCell id="1" parent="0" />
      </root>
    </mxGraphModel>
  </diagram>
</mxfile>
